/* XPM */
static char *_532772981484[] = {
/* columns rows colors chars-per-pixel */
"64 64 41 1 ",
"  c #010101",
". c #1D1D1D",
"X c #222222",
"o c #2D2D2D",
"O c gray19",
"+ c #343434",
"@ c gray23",
"# c #3F3F3F",
"$ c #414141",
"% c #464646",
"& c #494949",
"* c gray31",
"= c #535353",
"- c gray37",
"; c #646464",
": c #676767",
"> c gray42",
", c #777777",
"< c gray49",
"1 c gray51",
"2 c gray52",
"3 c #898989",
"4 c #8D8D8D",
"5 c gray57",
"6 c gray59",
"7 c #A7A7A7",
"8 c gray67",
"9 c gray70",
"0 c #B6B6B6",
"q c #B9B9B9",
"w c gray",
"e c #C5C5C5",
"r c gray80",
"t c gray86",
"y c #E1E1E1",
"u c gray90",
"i c gray91",
"p c #F3F3F3",
"a c gray97",
"s c #F8F8F8",
"d c gray99",
/* pixels */
"ssssssssssssssssssssssssssssssssssssssssssssssssssssssssssssssss",
"ssssssssssssssssssssssssssssssssssssssssssssssssssssssssssssssss",
"ssssssssssssssssssssssssssssssssssssssssssssssssssssssssssssssss",
"ssssssssssssssssssssssssssssssssssssssssssssssssssssssssssssssss",
"ssssssssssssssssssssssssssssssssssssssssssssssssssssssssssssssss",
"ssssssssssssssssssssssssssssssssssssssssssssssssssssssssssssssss",
"ssssssssssssssssssssssssssssssssssssssssssssssssssssssssssssssss",
"ssssssssssssssssssssssssssssssssssssssssssssssssssssssssssssssss",
"ssssssssssssssssssssssssssssssssssssssssssssssssssssssssssssssss",
"ssssssssssssssssssssssssssssssssssssssssssssssssssssssssssssssss",
"ssssssssssssssssssssssssssssssssssssssssssssssssssssssssssssssss",
"ssssssssssssssssssssssssssssssssssssssssssssssssssssssssssssssss",
"ssssssssssssssssssssssssssssssssssssssssssssssssssssssssssssssss",
"ssssssssssssssssssssssssssssssssssssssssssssssssssssssssssssssss",
"ssssssssssssssssssssssssssssssssssssssssssssssssssssssssssssssss",
"ssssssssssssssssssssssssssssssssssssssssssssssssssssssssssssssss",
"ssssssssssssssssssssssssssssssssssssssssssssssssssssssssssssssss",
"ssssssssssssssssssssssssssssssssssssssssssssssssssssssssssssssss",
"ssssssssssssssssssssssssssssssssssssssssssssssssssssssssssssssss",
"ssssssssssssssssssssssssssssssssssssssssssssssssssssssssssssssss",
"ssssssssssssssssssssssssssssssssssssssssssssssssssssssssssssssss",
"ssssssssssssssssssssssssssssssssssssssssssssssssssssssssssssssss",
"ssssssssssssssssssssssssssssssssssssssssssssssssssssssssssssssss",
"ssssssssssssssssssssssssssssssssssssssssssssssssssssssssssssssss",
"ssssssssssssssssssssssssdaassassdsssssssssssssssssssssssssssssss",
"sssssssssssssssssssssssssdsasssaassaaassssssssssssssssssssssssss",
"ssssssssssssssssssssssssssssassssaaadassssssdsssssssssssssssssss",
"ssssssssssssssssssssssssassssasssaadpdssssssssssssssssssssssssss",
"ssssssssssssssssssssssssdadsasassssasdsassssssssssssssssssssssss",
"ssssssssssssssssssssssssaddssssaadssdsdsssssssssssssssssssssssss",
"ssssssssssssssssssssssddi2qdsssddssssi7ddsssssssssssssssssssssss",
"sssssssssssssssssssddddd2rwrdddddsddddtddddsssasssssssssssssssss",
"ssssssssssssssssadadod$qd;p9Od*0  8  q,  =ddasssssssssssssssssss",
"sssssssssssssssssadd$d=9d0ee$d;,ud>dt>1*d+dssaasssssssssssssssss",
"sssssssssssssssssaado4#s0<u0%1.4=2<-&4,@d+dsssssssssssssssssssss",
"ssssssssssssssssssssy8$d064dd35d52d56deqswdasdaassssssssssssssss",
"ssssssssssssssssasaad Xddddsaddsdddddsdddssssaddssssssssssssssss",
"ssssssssssssssssdasasddsassdasdsssssaadsssssssasssssssssssssssss",
"ssssssssssssssssaaassssasaasssdassdsssasssssssasssssssssssssssss",
"ssssssssssssssssssssassssssdasasssssssssssssadsassssssssssssssss",
"ssssssssssssssssssssssssssssssssssssssssssssssssssssssssssssssss",
"ssssssssssssssssssssssssssssssssssssssssssssssssssssssssssssssss",
"ssssssssssssssssssssssssssssssssssssssssssssssssssssssssssssssss",
"ssssssssssssssssssssssssssssssssssssssssssssssssssssssssssssssss",
"ssssssssssssssssssssssssssssssssssssssssssssssssssssssssssssssss",
"ssssssssssssssssssssssssssssssssssssssssssssssssssssssssssssssss",
"ssssssssssssssssssssssssssssssssssssssssssssssssssssssssssssssss",
"ssssssssssssssssssssssssssssssssssssssssssssssssssssssssssssssss",
"ssssssssssssssssssssssssssssssssssssssssssssssssssssssssssssssss",
"ssssssssssssssssssssssssssssssssssssssssssssssssssssssssssssssss",
"ssssssssssssssssssssssssssssssssssssssssssssssssssssssssssssssss",
"ssssssssssssssssssssssssssssssssssssssssssssssssssssssssssssssss",
"ssssssssssssssssssssssssssssssssssssssssssssssssssssssssssssssss",
"ssssssssssssssssssssssssssssssssssssssssssssssssssssssssssssssss",
"ssssssssssssssssssssssssssssssssssssssssssssssssssssssssssssssss",
"ssssssssssssssssssssssssssssssssssssssssssssssssssssssssssssssss",
"ssssssssssssssssssssssssssssssssssssssssssssssssssssssssssssssss",
"ssssssssssssssssssssssssssssssssssssssssssssssssssssssssssssssss",
"ssssssssssssssssssssssssssssssssssssssssssssssssssssssssssssssss",
"ssssssssssssssssssssssssssssssssssssssssssssssssssssssssssssssss",
"ssssssssssssssssssssssssssssssssssssssssssssssssssssssssssssssss",
"ssssssssssssssssssssssssssssssssssssssssssssssssssssssssssssssss",
"ssssssssssssssssssssssssssssssssssssssssssssssssssssssssssssssss",
"ssssssssssssssssssssssssssssssssssssssssssssssssssssssssssssssss"
};
