/* XPM */
static char *_e53e12e39164144ab0f829555b53e4d[] = {
/* columns rows colors chars-per-pixel */
"16 16 11 1 ",
"  c gray44",
". c #777777",
"X c #7E7E7E",
"o c #B1B1B1",
"O c #C8C8C8",
"+ c gray85",
"@ c #E4E4E4",
"# c #F3F3F3",
"$ c gray97",
"% c #F8F8F8",
"& c #FDFDFD",
/* pixels */
"%%%%$%%%%%%%%%%%",
"$%%%%$%%%%%%%%%%",
"%%%%%%%%%%%%%%%%",
"%%%%$&$%%%%%%%%%",
"%&%$$%$%%%%%%%%%",
"%$%%$$&$%%%%%%%%",
"%$$%$%%%%%%%%%%%",
"%&$$$&+&$$%%%%%%",
"%%%$&XoX. O&$%%%",
"&$%%&@&&&&&%$$%%",
"%$%%$%%%$&$$&%%$",
"%%$$$$%$%$$$$$%%",
"%%%&%&#%%%%$$&$$",
"%%%$$$$%$%$$%%%$",
"$%%$%$%$%%%%$$%$",
"%$%%$&%%%%%%$%%%"
};
